<svg id="campfireIcon" xmlns:dc="http://purl.org/dc/elements/1.1/" xmlns:cc="http://creativecommons.org/ns#"
    xmlns:rdf="http://www.w3.org/1999/02/22-rdf-syntax-ns#" xmlns:svg="http://www.w3.org/2000/svg"
    xmlns="http://www.w3.org/2000/svg" xmlns:sodipodi="http://sodipodi.sourceforge.net/DTD/sodipodi-0.dtd"
    xmlns:inkscape="http://www.inkscape.org/namespaces/inkscape" version="1.1" x="0px" y="0px" viewBox="23 6 55 90">
    <g transform="translate(0,-952.36218)">
        <path
            style="font-size:medium;font-style:normal;font-variant:normal;font-weight:normal;font-stretch:normal;text-indent:0;text-align:start;text-decoration:none;line-height:normal;letter-spacing:normal;word-spacing:normal;text-transform:none;direction:ltr;block-progression:tb;writing-mode:lr-tb;text-anchor:start;baseline-shift:baseline;opacity:1;color:#000000;fill:#e76f51;fill-opacity:1;stroke:none;stroke-width:6.00030231000000040;marker:none;visibility:visible;display:inline;overflow:visible;enable-background:accumulate;font-family:Sans;-inkscape-font-specification:Sans"
            d="M 55.3125 6 A 2.8867029 2.924118 0 0 0 53.5625 6.6875 C 46.239232 12.95272 40.396315 19.49988 38.0625 28.3125 A 2.8916167 2.9290955 0 0 0 43.65625 29.78125 C 45.075978 24.42027 48.118742 19.97222 52.5 15.5625 C 52.625854 18.57716 52.950911 22.0879 53.6875 25.71875 C 55.1355 32.85636 58.086589 40.56101 64.90625 44.09375 A 2.8867029 2.924118 0 0 0 68.96875 42.4375 C 69.287477 41.47205 69.442205 40.47584 69.46875 39.46875 C 70.814993 41.80544 71.21875 44.12163 71.21875 47.03125 C 71.21875 52.92398 68.388109 58.29445 63.8125 61.90625 C 63.88677 57.69235 62.775761 54.0229 60.90625 51.0625 C 58.13664 46.67667 54.199368 43.57608 51.09375 40.78125 A 2.8867029 2.924118 0 0 0 46.34375 43.53125 C 46.559463 44.64136 46.429415 45.24592 46.09375 45.9375 C 45.758088 46.62912 45.090867 47.39617 44.21875 48.25 C 42.474518 49.9574 39.508284 51.9277 38.9375 55.875 A 2.8871971 2.9246186 0 1 0 44.65625 56.71875 C 44.782934 55.84275 46.148709 54.4946 48.25 52.4375 C 49.25702 51.4518 50.347101 50.2654 51.15625 48.6875 C 53.055368 50.4526 54.798585 52.2355 56.03125 54.1875 C 58.086865 57.4427 59.065782 60.9777 57.34375 66.625 A 2.8867029 2.924118 0 0 0 61.21875 70.15625 C 70.469667 66.19335 77 57.30698 77 47.03125 C 77 40.29146 74.3648 34.27871 66.8125 28.25 A 2.8867029 2.924118 0 0 0 62.21875 31.1875 C 62.448646 32.20279 62.46161 32.77951 62.625 33.65625 C 61.142131 31.05066 60.025673 27.89264 59.34375 24.53125 C 58.055737 18.18227 58.146989 11.56629 58.34375 9.15625 A 2.8867029 2.924118 0 0 0 55.3125 6 z M 32.75 28.40625 A 2.8867029 2.924118 0 0 0 30.8125 29.21875 C 26.01312 33.75835 23 40.07257 23 47.03125 C 23 59.38638 31.636153 68.36785 44.03125 70.34375 A 2.8867029 2.924118 0 1 0 44.90625 64.59375 C 34.578973 62.94755 28.78125 56.80548 28.78125 47.03125 C 28.78125 43.71815 29.746612 40.64106 31.34375 37.90625 C 32.18499 40.15584 33.367797 42.52862 35.40625 44.34375 A 2.8867029 2.924118 0 1 0 39.25 39.96875 C 38.26101 39.08811 37.231279 37.29163 36.59375 35.5 C 35.956221 33.70837 35.684112 31.7756 35.6875 31.375 A 2.8867029 2.924118 0 0 0 32.75 28.40625 z M 28.09375 69.65625 A 2.4713168 2.503348 0 0 0 26.09375 71.34375 L 23.53125 78.9375 A 2.4713168 2.503348 0 0 0 24.5 81.84375 A 2.5042306 2.470446 1.0051268 0 0 23.53125 84.6875 L 26.09375 92.28125 A 2.5087447 2.4748991 1.0051253 0 0 30.78125 90.71875 L 29.0625 85.65625 L 68.8125 75.15625 L 69.78125 78 L 35.65625 87 A 2.5042306 2.470446 1.0051268 1 0 36.96875 91.84375 L 65.09375 84.40625 L 69.75 85.65625 L 68.8125 88.5 L 63.65625 87.125 A 2.4713168 2.503348 0 1 0 62.4375 91.96875 L 69.78125 93.90625 A 2.4713168 2.503348 0 0 0 72.75 92.3125 L 75.3125 84.71875 A 2.4713168 2.503348 0 0 0 74.34375 81.8125 A 2.5042306 2.470446 1.0051268 0 0 75.34375 78.96875 L 72.75 71.375 A 2.5042306 2.470446 1.0051268 0 0 69.75 69.75 L 49.4375 75.09375 L 29.0625 69.71875 A 2.4713168 2.503348 0 0 0 28.34375 69.65625 A 2.4713168 2.503348 0 0 0 28.09375 69.65625 z M 30.0625 75.15625 L 39.65625 77.6875 L 33.78125 79.25 A 2.4755234 2.5076091 0 0 0 33.59375 79.1875 L 29.09375 78 L 30.0625 75.15625 z "
            transform="translate(0,952.36218)" />
    </g>
</svg>