<svg xmlns="http://www.w3.org/2000/svg" viewBox="0 -12 48 60" x="0px" y="0px">
    <title>fishing fish hook sea water</title>
    <g>
        <path fill="#e76f51"
            d="M45.3828,28.0762a.9989.9989,0,0,0-1.09.2168l-4.2458,4.2458C38.621,31.0217,35.277,28,31.25,28c-5.2588,0-9.3652,5.1631-9.5371,5.3828a1,1,0,0,0,0,1.2344C21.8848,34.8369,25.9912,40,31.25,40c4.027,0,7.371-3.0217,8.7972-4.5388L44.293,39.707A1,1,0,0,0,46,39V29A.9989.9989,0,0,0,45.3828,28.0762ZM31.25,38c-3.3135,0-6.251-2.7432-7.4229-4.001C24.9961,32.74,27.9238,30,31.25,30c3.3135,0,6.251,2.7432,7.4229,4.001C37.5039,35.26,34.5762,38,31.25,38ZM44,36.5859,41.4141,34,44,31.4141Z" />
        <path fill="#e76f51"
            d="M1,2a4.5183,4.5183,0,0,1,2.7637.8545A6.4614,6.4614,0,0,0,7.5684,4,6.4614,6.4614,0,0,0,11.373,2.8545,4.5183,4.5183,0,0,1,14.1367,2a4.5246,4.5246,0,0,1,2.7656.8545A6.459,6.459,0,0,0,20.707,4a6.458,6.458,0,0,0,3.8037-1.1455,4.9,4.9,0,0,1,5.5293,0A6.4634,6.4634,0,0,0,33.8467,4a6.4694,6.4694,0,0,0,3.8076-1.1455,4.9139,4.9139,0,0,1,5.5381,0A6.4694,6.4694,0,0,0,47,4a1,1,0,0,0,0-2,4.534,4.534,0,0,1-2.7686-.8545,6.9026,6.9026,0,0,0-7.6162,0A4.5318,4.5318,0,0,1,33.8467,2a4.5309,4.5309,0,0,1-2.7676-.8545,6.8912,6.8912,0,0,0-7.6094,0A4.5152,4.5152,0,0,1,20.707,2a4.5246,4.5246,0,0,1-2.7656-.8545A6.459,6.459,0,0,0,14.1367,0,6.4614,6.4614,0,0,0,10.332,1.1455,4.5183,4.5183,0,0,1,7.5684,2a4.5183,4.5183,0,0,1-2.7637-.8545A6.4614,6.4614,0,0,0,1,0,1,1,0,0,0,1,2Z" />
        <path fill="#e76f51"
            d="M47,9a4.534,4.534,0,0,1-2.7686-.8545,6.9026,6.9026,0,0,0-7.6162,0,4.9107,4.9107,0,0,1-5.5361,0,6.8912,6.8912,0,0,0-7.6094,0A4.5152,4.5152,0,0,1,20.707,9a4.5246,4.5246,0,0,1-2.7656-.8545A6.459,6.459,0,0,0,14.1367,7,6.4614,6.4614,0,0,0,10.332,8.1455,4.5183,4.5183,0,0,1,7.5684,9a4.5183,4.5183,0,0,1-2.7637-.8545A6.4614,6.4614,0,0,0,1,7,1,1,0,0,0,1,9a4.5183,4.5183,0,0,1,2.7637.8545A6.4614,6.4614,0,0,0,7.5684,11,6.4614,6.4614,0,0,0,11.373,9.8545,4.5183,4.5183,0,0,1,14.1367,9a4.5246,4.5246,0,0,1,2.7656.8545A6.459,6.459,0,0,0,20.707,11a6.458,6.458,0,0,0,3.8037-1.1455,4.9,4.9,0,0,1,5.5293,0,6.8993,6.8993,0,0,0,7.6143,0,4.9139,4.9139,0,0,1,5.5381,0A6.4694,6.4694,0,0,0,47,11a1,1,0,0,0,0-2Z" />
        <path fill="#e76f51"
            d="M47,16a4.534,4.534,0,0,1-2.7686-.8545,6.9026,6.9026,0,0,0-7.6162,0,4.9107,4.9107,0,0,1-5.5361,0,6.8912,6.8912,0,0,0-7.6094,0A4.5152,4.5152,0,0,1,20.707,16a4.5246,4.5246,0,0,1-2.7656-.8545A6.459,6.459,0,0,0,14.1367,14a6.4614,6.4614,0,0,0-3.8047,1.1455A4.5183,4.5183,0,0,1,7.5684,16a4.5183,4.5183,0,0,1-2.7637-.8545A6.4614,6.4614,0,0,0,1,14a1,1,0,0,0,0,2,4.5183,4.5183,0,0,1,2.7637.8545A6.4614,6.4614,0,0,0,7.5684,18a6.4614,6.4614,0,0,0,3.8047-1.1455A4.5183,4.5183,0,0,1,14.1367,16a4.5246,4.5246,0,0,1,2.7656.8545A6.459,6.459,0,0,0,20.707,18a6.458,6.458,0,0,0,3.8037-1.1455,4.9,4.9,0,0,1,5.5293,0,6.8993,6.8993,0,0,0,7.6143,0,4.9139,4.9139,0,0,1,5.5381,0A6.4694,6.4694,0,0,0,47,18a1,1,0,0,0,0-2Z" />
        <path fill="#e76f51"
            d="M18.7083,36.2943a1.0031,1.0031,0,0,0-1.4166,0L14.293,39.293A1,1,0,0,0,15.707,40.707L17,39.4141V40A6,6,0,0,1,5,40V28.8157a2.9821,2.9821,0,0,0,0-5.6315V20a1,1,0,0,0-2,0v3.1843a2.982,2.982,0,0,0,0,5.6314V40a8,8,0,0,0,16,0v-.5859l1.293,1.293A1,1,0,0,0,21.707,39.293Z" />
    </g>
</svg>